<?xml version="1.0" standalone="no"?>
<svg xmlns:xlink="http://www.w3.org/1999/xlink" id="wave" style="transform:rotate(0deg); transition: 0.3s" viewBox="0 0 1440 360" version="1.1" xmlns="http://www.w3.org/2000/svg"><defs><linearGradient id="sw-gradient-0" x1="0" x2="0" y1="1" y2="0"><stop stop-color="rgba(67.034, 153.124, 255, 1)" offset="0%"/><stop stop-color="rgba(11, 40.101, 255, 1)" offset="100%"/></linearGradient></defs><path style="transform:translate(0, 0px); opacity:1" fill="url(#sw-gradient-0)" d="M0,36L60,78C120,120,240,204,360,240C480,276,600,264,720,258C840,252,960,252,1080,216C1200,180,1320,108,1440,84C1560,60,1680,84,1800,126C1920,168,2040,228,2160,246C2280,264,2400,240,2520,210C2640,180,2760,144,2880,114C3000,84,3120,60,3240,90C3360,120,3480,204,3600,234C3720,264,3840,240,3960,234C4080,228,4200,240,4320,222C4440,204,4560,156,4680,132C4800,108,4920,108,5040,102C5160,96,5280,84,5400,96C5520,108,5640,144,5760,186C5880,228,6000,276,6120,270C6240,264,6360,204,6480,198C6600,192,6720,240,6840,228C6960,216,7080,144,7200,114C7320,84,7440,96,7560,102C7680,108,7800,108,7920,96C8040,84,8160,60,8280,54C8400,48,8520,60,8580,66L8640,72L8640,360L8580,360C8520,360,8400,360,8280,360C8160,360,8040,360,7920,360C7800,360,7680,360,7560,360C7440,360,7320,360,7200,360C7080,360,6960,360,6840,360C6720,360,6600,360,6480,360C6360,360,6240,360,6120,360C6000,360,5880,360,5760,360C5640,360,5520,360,5400,360C5280,360,5160,360,5040,360C4920,360,4800,360,4680,360C4560,360,4440,360,4320,360C4200,360,4080,360,3960,360C3840,360,3720,360,3600,360C3480,360,3360,360,3240,360C3120,360,3000,360,2880,360C2760,360,2640,360,2520,360C2400,360,2280,360,2160,360C2040,360,1920,360,1800,360C1680,360,1560,360,1440,360C1320,360,1200,360,1080,360C960,360,840,360,720,360C600,360,480,360,360,360C240,360,120,360,60,360L0,360Z"/></svg>